PathFileType	4	(X/Y/Z)	/Users/itak/Documents/Research/Walk-IL/dataset/trc/00479_00167.trc
DataRate	CameraRate	NumFrames	NumMarkers	Units	OrigDataRate	OrigDataStartFrame	OrigNumFrames
100.000000	100.000000	4	53	mm	100.000000	151	605
Frame#	Time	RPSI			LPSI			L3			STRN			T10			C7			CLAV			RBAK			LBAK			LSHO			LUPA			LAEL			LAOL			LWTS			LWPS			LFRA			LIFD			LHPS			LHTS			RSHO			RUPA			RAEL			RAOL			RWTS			RWPS			RFRA			RIFD			RHTS			RHPS			RBHD			LFHD			RFHD			LBHD			LHIP			RHIP			RASI			LASI			LKNE			LTHI			LANK			LTIP			LTOE			LMT1			LMT5			LHEE			RKNE			RTHI			RANK			RTIP			RTOE			RMT1			RMT5			RHEE			
		X1	Y1	Z1	X2	Y2	Z2	X3	Y3	Z3	X4	Y4	Z4	X5	Y5	Z5	X6	Y6	Z6	X7	Y7	Z7	X8	Y8	Z8	X9	Y9	Z9	X10	Y10	Z10	X11	Y11	Z11	X12	Y12	Z12	X13	Y13	Z13	X14	Y14	Z14	X15	Y15	Z15	X16	Y16	Z16	X17	Y17	Z17	X18	Y18	Z18	X19	Y19	Z19	X20	Y20	Z20	X21	Y21	Z21	X22	Y22	Z22	X23	Y23	Z23	X24	Y24	Z24	X25	Y25	Z25	X26	Y26	Z26	X27	Y27	Z27	X28	Y28	Z28	X29	Y29	Z29	X30	Y30	Z30	X31	Y31	Z31	X32	Y32	Z32	X33	Y33	Z33	X34	Y34	Z34	X35	Y35	Z35	X36	Y36	Z36	X37	Y37	Z37	X38	Y38	Z38	X39	Y39	Z39	X40	Y40	Z40	X41	Y41	Z41	X42	Y42	Z42	X43	Y43	Z43	X44	Y44	Z44	X45	Y45	Z45	X46	Y46	Z46	X47	Y47	Z47	X48	Y48	Z48	X49	Y49	Z49	X50	Y50	Z50	X51	Y51	Z51	X52	Y52	Z52	X53	Y53	Z53	

152	1.51	-1350.718505859375	966.0892944335938	-55.29121017456055	-1336.190307617188	964.7772827148438	-195.8345794677734	-1328.984375	1052.741088867188	-111.3925247192383	-1062.38671875	1255.616821289062	-105.4170608520508	-1346.748779296875	1175.2177734375	-120.0631256103516	-1289.849365234375	1445.65478515625	-105.3049468994141	-1101.220092773438	1367.775756835938	-111.0036849975586	-1351.902099609375	1323.6279296875	-12.34675693511963	-1316.482421875	1396.186889648438	-206.3706207275391	-1210.702026367188	1420.4814453125	-281.3031921386719	-1210.296264648438	1300.202880859375	-379.8730163574219	-1179.341796875	1082.2470703125	-404.4911499023438	-1262.063354492188	1067.618408203125	-344.217041015625	-1094.638305664062	885.0036010742188	-347.8414306640625	-1136.958618164062	865.3480224609375	-406.28955078125	-1153.986328125	994.8694458007812	-409.2661437988281	-1081.862548828125	726.4575805664062	-352.0924377441406	-1127.024780273438	788.384521484375	-403.4551696777344	-1073.41455078125	801.322021484375	-352.9024047851562	-1227.003295898438	1417.40625	57.78135681152344	-1243.334838867188	1355.613891601562	133.6802062988281	-1220.5244140625	1066.830688476562	187.3758087158203	-1270.714111328125	1047.385375976562	147.2192687988281	-1105.344604492188	867.6285400390625	143.6561279296875	-1172.328491210938	849.23291015625	199.1573791503906	-1213.4482421875	1008.5029296875	196.3589782714844	-1096.147094726562	711.6968383789062	150.9907379150391	-1083.813110351562	771.2840576171875	154.8619995117188	-1150.677734375	764.1337890625	197.0475769042969	-1220.936645507812	1649.445922851562	-19.71024703979492	-1078.684326171875	1667.801025390625	-169.1010437011719	-1085.88916015625	1671.110229492188	-38.73133850097656	-1227.99951171875	1648.529296875	-197.5658416748047	-1191.90869140625	865.0338134765625	-301.2590637207031	-1251.587646484375	861.2349853515625	90.78975677490234	-1137.687377929688	899.8275146484375	42.66157531738281	-1099.401489257812	898.4373779296875	-213.8775482177734	-1206.36376953125	447.1459350585938	-278.1795959472656	-1171.96923828125	597.9749755859375	-293.2291870117188	-1284.1708984375	41.99267578125	-286.9956665039062	-1216.866577148438	300.650390625	-295.7737121582031	-1056.849609375	44.97223663330078	-198.6116638183594	-1135.804077148438	50.6467170715332	-176.1309051513672	-1129.477661132812	47.6411247253418	-289.7260131835938	-1334.201904296875	45.08720779418945	-226.5699920654297	-1233.330932617188	471.3056640625	90.50653076171875	-1214.055297851562	730.0006103515625	117.0263519287109	-1298.575927734375	43.8848991394043	122.790657043457	-1237.020629882812	330.1777648925781	111.0190734863281	-1084.526000976562	48.7723388671875	70.94474792480469	-1148.145874023438	52.47075653076172	35.86863708496094	-1165.252685546875	48.77581787109375	144.46826171875	-1364.454223632812	35.3026123046875	79.39649963378906	
153	1.52	-1350.567504882812	966.0499877929688	-55.29778671264648	-1335.983276367188	964.7517700195312	-195.8879089355469	-1328.784790039062	1052.688354492188	-111.4345245361328	-1062.248413085938	1255.5888671875	-105.3710021972656	-1346.57958984375	1175.177856445312	-120.0811767578125	-1289.7177734375	1445.61669921875	-105.3802108764648	-1101.08447265625	1367.799072265625	-110.9927139282227	-1351.822021484375	1323.604370117188	-12.33226871490479	-1316.330444335938	1396.125366210938	-206.4369812011719	-1210.552612304688	1420.407958984375	-281.3625793457031	-1210.154663085938	1300.1064453125	-379.8671875	-1179.179931640625	1082.15869140625	-404.4609985351562	-1261.9208984375	1067.533081054688	-344.1612243652344	-1094.607055664062	884.9081420898438	-347.840576171875	-1136.758422851562	865.2371215820312	-406.201171875	-1153.830078125	994.7444458007812	-409.1984558105469	-1081.93994140625	726.333740234375	-352.0314331054688	-1126.925903320312	788.2753295898438	-403.3972473144531	-1073.203002929688	801.2192993164062	-352.8211059570312	-1226.908203125	1417.4052734375	57.75619125366211	-1243.224243164062	1355.656616210938	133.6544342041016	-1220.387573242188	1066.921630859375	187.5277862548828	-1270.748168945312	1047.509643554688	147.5796966552734	-1105.78857421875	867.4252319335938	143.5948944091797	-1172.397705078125	849.2590942382812	199.3171539306641	-1213.380615234375	1008.608947753906	196.5732879638672	-1096.647338867188	711.5564575195312	150.9244842529297	-1084.162231445312	771.1399536132812	154.7074890136719	-1150.91455078125	764.1235961914062	197.20654296875	-1220.845092773438	1649.419189453125	-19.7255802154541	-1078.605346679688	1667.819580078125	-169.1405487060547	-1085.802001953125	1671.111328125	-38.7713737487793	-1227.942260742188	1648.52734375	-197.5858917236328	-1191.68701171875	865.0196533203125	-301.3099060058594	-1251.471069335938	861.1984252929688	90.86732482910156	-1137.652954101562	899.8151245117188	42.64941024780273	-1099.236694335938	898.4212646484375	-213.8950653076172	-1206.245849609375	447.1356201171875	-278.16259765625	-1171.782470703125	597.9323120117188	-293.2322692871094	-1284.185180664062	41.97139739990234	-287.0053100585938	-1216.734008789062	300.6210327148438	-295.7253112792969	-1056.909057617188	45.05724334716797	-198.6144256591797	-1135.837890625	50.63824081420898	-176.1246948242188	-1129.563110351562	47.76472091674805	-289.6636047363281	-1334.248291015625	45.06871795654297	-226.5861358642578	-1233.35546875	471.3219299316406	90.53943634033203	-1214.050415039062	729.951904296875	117.1330032348633	-1298.586181640625	43.86697387695312	122.8046951293945	-1237.03173828125	330.162353515625	111.0587692260742	-1084.535400390625	48.77390289306641	70.95663452148438	-1148.164794921875	52.47524642944336	35.88987731933594	-1165.246337890625	48.76804351806641	144.4788208007812	-1364.467407226562	35.27354431152344	79.41806793212891	
154	1.53	-1350.404907226562	965.9991455078125	-55.31658935546875	-1335.769287109375	964.7235717773438	-195.9535217285156	-1328.59130859375	1052.634399414062	-111.4578628540039	-1062.098999023438	1255.555786132812	-105.3222198486328	-1346.395385742188	1175.138671875	-120.1104278564453	-1289.5869140625	1445.578369140625	-105.4374694824219	-1100.958129882812	1367.808837890625	-110.9873657226562	-1351.737060546875	1323.584594726562	-12.32405662536621	-1316.16650390625	1396.060180664062	-206.5052642822266	-1210.394653320312	1420.32958984375	-281.4180603027344	-1209.99951171875	1300.004272460938	-379.8668518066406	-1179.009643554688	1082.056274414062	-404.4232482910156	-1261.769409179688	1067.44384765625	-344.1064758300781	-1094.609252929688	884.78369140625	-347.8354797363281	-1136.577026367188	865.119873046875	-406.1141662597656	-1153.692138671875	994.6148071289062	-409.1464538574219	-1082.041870117188	726.1883544921875	-351.9588012695312	-1126.846313476562	788.1688232421875	-403.3504028320312	-1073.016235351562	801.1097412109375	-352.7495422363281	-1226.81005859375	1417.402587890625	57.7379150390625	-1243.1044921875	1355.69775390625	133.6215057373047	-1220.2802734375	1066.9990234375	187.6477203369141	-1270.734375	1047.622436523438	147.7947692871094	-1106.212524414062	867.22412109375	143.5155487060547	-1172.498779296875	849.2786254882812	199.4452972412109	-1213.32958984375	1008.701354980469	196.7298126220703	-1097.1298828125	711.4230346679688	150.8723602294922	-1084.512817382812	770.999755859375	154.5894470214844	-1151.155883789062	764.1036987304688	197.3164215087891	-1220.742065429688	1649.39111328125	-19.76134300231934	-1078.509521484375	1667.832153320312	-169.188232421875	-1085.691162109375	1671.109619140625	-38.82554626464844	-1227.863647460938	1648.517822265625	-197.6237182617188	-1191.457153320312	865.0012817382812	-301.3710021972656	-1251.339599609375	861.147705078125	90.96104431152344	-1137.617553710938	899.7789306640625	42.61968612670898	-1099.044311523438	898.4067993164062	-213.9240875244141	-1206.087158203125	447.1321411132812	-278.1461486816406	-1171.56640625	597.8939819335938	-293.2511596679688	-1284.197998046875	41.95521545410156	-287.0123291015625	-1216.561279296875	300.5859985351562	-295.6722412109375	-1056.978637695312	45.15582656860352	-198.6120452880859	-1135.875122070312	50.62704849243164	-176.1186370849609	-1129.660522460938	47.9005241394043	-289.5997009277344	-1334.30322265625	45.04898834228516	-226.5986938476562	-1233.372680664062	471.3373413085938	90.56587219238281	-1214.010864257812	729.896728515625	117.2025451660156	-1298.60302734375	43.8494758605957	122.830322265625	-1237.034545898438	330.1388244628906	111.0986557006836	-1084.54931640625	48.77524185180664	70.96770477294922	-1148.18359375	52.48008728027344	35.90537643432617	-1165.242553710938	48.76330947875977	144.4864349365234	-1364.489379882812	35.23622512817383	79.45260620117188	
155	1.54	-1350.230102539062	965.9381713867188	-55.35257339477539	-1335.549072265625	964.6939086914062	-196.0322875976562	-1328.403198242188	1052.580078125	-111.4644088745117	-1061.934814453125	1255.516967773438	-105.2721176147461	-1346.195190429688	1175.101806640625	-120.1466751098633	-1289.45751953125	1445.539916992188	-105.47216796875	-1100.835327148438	1367.805786132812	-110.9915161132812	-1351.641479492188	1323.56884765625	-12.32476425170898	-1315.990478515625	1395.992553710938	-206.5708465576172	-1210.223388671875	1420.24755859375	-281.4659118652344	-1209.825317382812	1299.896606445312	-379.8716735839844	-1178.832153320312	1081.941040039062	-404.378662109375	-1261.608276367188	1067.351684570312	-344.0552368164062	-1094.624145507812	884.63671875	-347.824462890625	-1136.416381835938	864.9970092773438	-406.02783203125	-1153.571044921875	994.4844970703125	-409.1115112304688	-1082.153930664062	726.023193359375	-351.8714599609375	-1126.78369140625	788.0693359375	-403.3116455078125	-1072.857543945312	800.9905395507812	-352.6860046386719	-1226.705444335938	1417.398681640625	57.72518920898438	-1242.974975585938	1355.737060546875	133.5826263427734	-1220.200561523438	1067.06298828125	187.7303161621094	-1270.66796875	1047.72314453125	147.8548736572266	-1106.591674804688	867.03564453125	143.4202423095703	-1172.635375976562	849.2923583984375	199.5407562255859	-1213.29296875	1008.779052734375	196.8226318359375	-1097.5908203125	711.2933959960938	150.8450927734375	-1084.8642578125	770.861572265625	154.5227813720703	-1151.4052734375	764.0770874023438	197.3830871582031	-1220.623413085938	1649.360961914062	-19.8203182220459	-1078.396728515625	1667.837890625	-169.2468719482422	-1085.549682617188	1671.105834960938	-38.89810943603516	-1227.76171875	1648.499877929688	-197.6813812255859	-1191.21533203125	864.9794921875	-301.4398193359375	-1251.18505859375	861.0835571289062	91.05918121337891	-1137.58544921875	899.72265625	42.57334899902344	-1098.82568359375	898.3937377929688	-213.9631652832031	-1205.877563476562	447.1383666992188	-278.131103515625	-1171.314331054688	597.8648071289062	-293.2870178222656	-1284.209350585938	41.94190979003906	-287.0172424316406	-1216.348876953125	300.5455932617188	-295.6191711425781	-1057.057739257812	45.26580810546875	-198.6006927490234	-1135.918212890625	50.61181640625	-176.1129608154297	-1129.767211914062	48.04257202148438	-289.5350036621094	-1334.365844726562	45.0272331237793	-226.607421875	-1233.372680664062	471.3515319824219	90.58543395996094	-1213.925659179688	729.8367919921875	117.2270126342773	-1298.629150390625	43.83152770996094	122.8716049194336	-1237.017700195312	330.1029968261719	111.135009765625	-1084.570556640625	48.77751159667969	70.97740173339844	-1148.202026367188	52.48612594604492	35.91181945800781	-1165.244140625	48.76430511474609	144.4896087646484	-1364.52294921875	35.18872833251953	79.50443267822266	
